<svg width="433" height="101" viewBox="0 0 433 101" fill="none" xmlns="http://www.w3.org/2000/svg">
<path d="M84.0547 59.7969H26.2578V41.375H84.0547V59.7969ZM92.2109 18.4531H18.9453V101H0.664062V9.38281C0.664062 8.11719 0.898438 6.92188 1.36719 5.79688C1.83594 4.67188 2.46875 3.6875 3.26562 2.84375C4.10938 2 5.09375 1.34375 6.21875 0.875C7.34375 0.40625 8.5625 0.171875 9.875 0.171875H92.2109V18.4531ZM205.766 91.7891C205.766 93.1016 205.531 94.3203 205.062 95.4453C204.594 96.5703 203.938 97.5547 203.094 98.3984C202.25 99.1953 201.266 99.8281 200.141 100.297C199.016 100.766 197.82 101 196.555 101H155.352C151.461 101 147.523 100.578 143.539 99.7344C139.555 98.8906 135.688 97.6016 131.938 95.8672C128.234 94.0859 124.742 91.8359 121.461 89.1172C118.18 86.3984 115.297 83.1875 112.812 79.4844C110.375 75.7344 108.453 71.4688 107.047 66.6875C105.641 61.8594 104.938 56.4922 104.938 50.5859V0.171875H123.219V50.5859C123.219 55.7422 123.922 60.1016 125.328 63.6641C126.781 67.2266 128.609 70.2031 130.812 72.5938C133.016 74.9844 135.43 76.8594 138.055 78.2188C140.68 79.5781 143.164 80.5859 145.508 81.2422C147.898 81.8984 149.984 82.3203 151.766 82.5078C153.594 82.6484 154.789 82.7188 155.352 82.7188H187.484V0.171875H205.766V91.7891ZM309.969 59.7969H252.242V41.375H309.969V59.7969ZM318.195 101H252.242C249.711 101 246.945 100.555 243.945 99.6641C240.945 98.7734 238.156 97.3203 235.578 95.3047C233.047 93.2422 230.914 90.5938 229.18 87.3594C227.492 84.0781 226.648 80.0703 226.648 75.3359V9.38281C226.648 8.11719 226.883 6.92188 227.352 5.79688C227.82 4.67188 228.453 3.6875 229.25 2.84375C230.094 2 231.078 1.34375 232.203 0.875C233.328 0.40625 234.547 0.171875 235.859 0.171875H318.195V18.4531H244.93V75.3359C244.93 77.7266 245.562 79.5547 246.828 80.8203C248.094 82.0859 249.945 82.7188 252.383 82.7188H318.195V101ZM432.383 71.3281C432.383 74.9375 431.914 78.1953 430.977 81.1016C430.086 83.9609 428.891 86.4922 427.391 88.6953C425.891 90.8984 424.133 92.7734 422.117 94.3203C420.102 95.8672 418.016 97.1328 415.859 98.1172C413.703 99.1016 411.5 99.8281 409.25 100.297C407.047 100.766 404.961 101 402.992 101H332.469V82.7188H402.992C406.508 82.7188 409.227 81.6875 411.148 79.625C413.117 77.5625 414.102 74.7969 414.102 71.3281C414.102 69.6406 413.844 68.0938 413.328 66.6875C412.812 65.2812 412.062 64.0625 411.078 63.0312C410.141 62 408.969 61.2031 407.562 60.6406C406.203 60.0781 404.68 59.7969 402.992 59.7969H360.945C357.992 59.7969 354.805 59.2812 351.383 58.25C347.961 57.1719 344.773 55.4609 341.82 53.1172C338.914 50.7734 336.477 47.7031 334.508 43.9062C332.586 40.1094 331.625 35.4688 331.625 29.9844C331.625 24.5 332.586 19.8828 334.508 16.1328C336.477 12.3359 338.914 9.26562 341.82 6.92188C344.773 4.53125 347.961 2.82031 351.383 1.78906C354.805 0.710938 357.992 0.171875 360.945 0.171875H423.172V18.4531H360.945C357.477 18.4531 354.758 19.5078 352.789 21.6172C350.867 23.7266 349.906 26.5156 349.906 29.9844C349.906 33.5 350.867 36.2891 352.789 38.3516C354.758 40.3672 357.477 41.375 360.945 41.375H402.992H403.133C405.102 41.4219 407.188 41.7031 409.391 42.2188C411.594 42.6875 413.773 43.4375 415.93 44.4688C418.133 45.5 420.219 46.8125 422.188 48.4062C424.156 49.9531 425.891 51.8281 427.391 54.0312C428.938 56.2344 430.156 58.7656 431.047 61.625C431.938 64.4844 432.383 67.7188 432.383 71.3281Z" fill="#111111"/>
</svg>
